<svg aria-hidden="true" style="width:0;height:0;position:absolute;overflow:hidden" xmlns="http://www.w3.org/2000/svg"><defs><symbol id="burger-menu" viewBox="0 0 48 32"><path d="M0 5.334V0h48v5.334H0zm0 13.332h48v-5.332H0v5.332zM0 32h48v-5.334H0V32z"/></symbol><symbol id="close" viewBox="0 0 32 32"><path d="M31.439 3.166 28.273 0 15.719 12.552 3.167 0 .001 3.166l12.552 12.552L.001 28.272l3.166 3.166 12.552-12.554 12.554 12.554 3.166-3.166-12.554-12.554L31.439 3.166z"/></symbol><symbol id="facebook" viewBox="0 0 32 32"><path d="M19 6h5V0h-5c-3.86 0-7 3.14-7 7v3H8v6h4v16h6V16h5l1-6h-6V7c0-.542.458-1 1-1z"/></symbol><symbol id="instagram" viewBox="0 0 32 32"><path d="M16 2.881c4.275 0 4.781.019 6.462.094 1.563.069 2.406.331 2.969.55a4.952 4.952 0 0 1 1.837 1.194 5.015 5.015 0 0 1 1.2 1.838c.219.563.481 1.412.55 2.969.075 1.688.094 2.194.094 6.463s-.019 4.781-.094 6.463c-.069 1.563-.331 2.406-.55 2.969a4.94 4.94 0 0 1-1.194 1.837 5.02 5.02 0 0 1-1.837 1.2c-.563.219-1.413.481-2.969.55-1.688.075-2.194.094-6.463.094s-4.781-.019-6.463-.094c-1.563-.069-2.406-.331-2.969-.55a4.952 4.952 0 0 1-1.838-1.194 5.02 5.02 0 0 1-1.2-1.837c-.219-.563-.481-1.413-.55-2.969-.075-1.688-.094-2.194-.094-6.463s.019-4.781.094-6.463c.069-1.563.331-2.406.55-2.969a4.964 4.964 0 0 1 1.194-1.838 5.015 5.015 0 0 1 1.838-1.2c.563-.219 1.412-.481 2.969-.55 1.681-.075 2.188-.094 6.463-.094zM16 0c-4.344 0-4.887.019-6.594.094-1.7.075-2.869.35-3.881.744-1.056.412-1.95.956-2.837 1.85a7.833 7.833 0 0 0-1.85 2.831C.444 6.538.169 7.7.094 9.4.019 11.113 0 11.656 0 16s.019 4.887.094 6.594c.075 1.7.35 2.869.744 3.881.413 1.056.956 1.95 1.85 2.837a7.82 7.82 0 0 0 2.831 1.844c1.019.394 2.181.669 3.881.744 1.706.075 2.25.094 6.594.094s4.888-.019 6.594-.094c1.7-.075 2.869-.35 3.881-.744 1.05-.406 1.944-.956 2.831-1.844s1.438-1.781 1.844-2.831c.394-1.019.669-2.181.744-3.881.075-1.706.094-2.25.094-6.594s-.019-4.887-.094-6.594c-.075-1.7-.35-2.869-.744-3.881a7.506 7.506 0 0 0-1.831-2.844A7.82 7.82 0 0 0 26.482.843C25.463.449 24.301.174 22.601.099c-1.712-.081-2.256-.1-6.6-.1z"/><path d="M16 7.781c-4.537 0-8.219 3.681-8.219 8.219s3.681 8.219 8.219 8.219 8.219-3.681 8.219-8.219A8.221 8.221 0 0 0 16 7.781zm0 13.55a5.331 5.331 0 1 1 0-10.663 5.331 5.331 0 0 1 0 10.663zM26.462 7.456a1.919 1.919 0 1 1-3.838 0 1.919 1.919 0 0 1 3.838 0z"/></symbol><symbol id="whatsapp" viewBox="0 0 32 32"><path d="M27.281 4.65C24.287 1.65 20.306 0 16.062 0 7.324 0 .212 7.112.212 15.856c0 2.794.731 5.525 2.119 7.925L.081 32l8.406-2.206a15.858 15.858 0 0 0 7.575 1.931h.006c8.738 0 15.856-7.113 15.856-15.856 0-4.238-1.65-8.219-4.644-11.219zm-11.212 24.4a13.17 13.17 0 0 1-6.713-1.837l-.481-.288-4.987 1.306 1.331-4.863-.313-.5a13.086 13.086 0 0 1-2.019-7.012c0-7.269 5.912-13.181 13.188-13.181 3.519 0 6.831 1.375 9.319 3.862a13.108 13.108 0 0 1 3.856 9.325c-.006 7.275-5.919 13.188-13.181 13.188zm7.225-9.875c-.394-.2-2.344-1.156-2.706-1.288s-.625-.2-.894.2c-.262.394-1.025 1.288-1.256 1.556-.231.262-.462.3-.856.1s-1.675-.619-3.188-1.969c-1.175-1.05-1.975-2.35-2.206-2.744s-.025-.613.175-.806c.181-.175.394-.463.594-.694s.262-.394.394-.662c.131-.262.069-.494-.031-.694s-.894-2.15-1.219-2.944c-.319-.775-.65-.669-.894-.681-.231-.012-.494-.012-.756-.012s-.694.1-1.056.494c-.363.394-1.387 1.356-1.387 3.306s1.419 3.831 1.619 4.1c.2.262 2.794 4.269 6.769 5.981.944.406 1.681.65 2.256.837.95.3 1.813.256 2.494.156.762-.113 2.344-.956 2.675-1.881s.331-1.719.231-1.881c-.094-.175-.356-.275-.756-.475z"/></symbol><symbol id="telegram" viewBox="0 0 32 32"><path d="M16 0C7.162 0 0 7.162 0 16s7.162 16 16 16 16-7.163 16-16S24.837 0 16 0zm7.863 10.969-2.625 12.369c-.181.881-.712 1.087-1.45.681l-4-2.956-1.919 1.869c-.225.219-.4.4-.8.4-.519 0-.431-.194-.606-.688L11.1 18.169l-3.956-1.231c-.856-.262-.862-.85.194-1.269l15.412-5.95c.7-.319 1.381.169 1.113 1.25z"/></symbol><symbol id="garanty" viewBox="0 0 27 32"><path d="M13.5 0C4.563 0 .292 5.047.114 5.262A.506.506 0 0 0 0 5.581v10.054c0 8.504 7.826 13.553 11.19 15.329a.501.501 0 0 0 .467-.885C7.677 27.978 1 23.308 1 15.634V5.771c.702-.755 4.632-4.597 12-4.765V31.5a.5.5 0 0 0 .875.331C15.512 31.127 27 25.816 27 15.5v-10a.5.5 0 0 0-.115-.319C26.737 5.002 23.171.806 15.744.057a.506.506 0 0 0-.548.447.5.5 0 0 0 .447.548c6.287.634 9.703 3.945 10.357 4.64V15.5c0 8.952-9.363 13.949-12 15.179V.5a.5.5 0 0 0-.5-.5z"/></symbol><symbol id="materials" viewBox="0 0 32 32"><path d="M30.765 7.262 19.222.747c-1.571-.887-4.271-.888-5.845 0L1.834 7.262C.951 7.761.466 8.459.466 9.229s.486 1.468 1.368 1.966l11.543 6.516c.786.444 1.824.688 2.922.688s2.137-.245 2.923-.688l11.543-6.516c.883-.498 1.369-1.196 1.369-1.966s-.487-1.468-1.369-1.967zm-.526 3.003-11.543 6.516c-1.238.699-3.556.7-4.794 0L2.359 10.265c-.524-.296-.824-.674-.824-1.036s.3-.74.824-1.037l11.543-6.516c.619-.35 1.493-.55 2.396-.55.904 0 1.778.201 2.397.55l11.543 6.516c.524.296.825.674.825 1.037.001.362-.299.74-.824 1.036zm.526 3.834a.536.536 0 0 0-.526.931c.524.296.825.674.825 1.036s-.301.74-.825 1.036l-11.543 6.516c-1.298.733-3.494.734-4.794 0L2.359 17.102c-.524-.296-.824-.674-.824-1.036s.3-.74.824-1.036a.534.534 0 1 0-.526-.931C.95 14.597.465 15.296.465 16.066s.485 1.469 1.368 1.967l11.543 6.516c.819.462 1.871.694 2.922.694s2.104-.231 2.923-.694l11.543-6.516c.883-.498 1.369-1.197 1.369-1.967s-.486-1.469-1.368-1.967zm0 6.705a.536.536 0 0 0-.526.931c.524.296.825.674.825 1.036s-.301.74-.825 1.037l-11.543 6.516c-1.298.733-3.494.734-4.794 0L2.359 23.807c-.524-.296-.824-.674-.824-1.037 0-.362.3-.74.824-1.036a.534.534 0 1 0-.526-.931C.952 21.302.466 22 .466 22.771s.485 1.469 1.368 1.967l11.543 6.516c.819.462 1.871.694 2.922.694 1.052 0 2.104-.231 2.923-.694l11.543-6.516c.883-.499 1.369-1.197 1.369-1.967s-.487-1.469-1.369-1.967z"/></symbol><symbol id="servises" viewBox="0 0 32 32"><path d="M16 32c8.822 0 16-7.178 16-16S24.822 0 16 0 0 7.178 0 16s7.178 16 16 16zM7.71 3.51c-.877 2.364-1.313 4.809-1.246 7.287.05 1.798.357 3.599.917 5.355a19.762 19.762 0 0 0 2.032 4.416.5.5 0 0 0 .85-.527c-.11-.178-.219-.358-.325-.541a18.805 18.805 0 0 1-1.604-3.651 18.41 18.41 0 0 1-.87-5.079c-.071-2.608.416-5.183 1.473-7.714.049-.12.101-.238.153-.356C11.16 1.62 13.507 1 16 1c2.393 0 4.648.577 6.657 1.578-2.48.423-4.809 1.267-6.919 2.563a19.3 19.3 0 0 0-4.179 3.471 19.555 19.555 0 0 0-2.809 3.969.5.5 0 1 0 .882.469 18.581 18.581 0 0 1 2.665-3.765 18.417 18.417 0 0 1 3.964-3.293 18.453 18.453 0 0 1 7.354-2.572c.146-.02.293-.036.44-.053 3.917 2.507 6.588 6.776 6.897 11.686-1.606-1.935-3.501-3.53-5.678-4.709a19.365 19.365 0 0 0-5.097-1.884 19.374 19.374 0 0 0-4.843-.448.501.501 0 0 0 .019 1h.019a18.378 18.378 0 0 1 4.593.425c1.707.373 3.334.975 4.833 1.786 2.295 1.244 4.281 2.953 5.958 5.151.072.093.141.188.211.282A14.988 14.988 0 0 1 24.29 28.49c.877-2.364 1.313-4.809 1.246-7.287a19.396 19.396 0 0 0-.917-5.355 19.762 19.762 0 0 0-2.032-4.416.5.5 0 0 0-.849.527c.11.178.219.358.325.541a18.805 18.805 0 0 1 1.604 3.651 18.41 18.41 0 0 1 .87 5.079c.071 2.607-.416 5.183-1.473 7.714-.05.119-.101.238-.153.356A14.9 14.9 0 0 1 16 31c-2.393 0-4.648-.577-6.657-1.578 2.479-.423 4.809-1.267 6.919-2.563a19.344 19.344 0 0 0 4.179-3.471 19.458 19.458 0 0 0 2.809-3.97.5.5 0 1 0-.883-.469 18.535 18.535 0 0 1-2.666 3.765 18.35 18.35 0 0 1-3.963 3.293 18.453 18.453 0 0 1-7.354 2.572c-.146.02-.293.036-.44.053-3.917-2.507-6.588-6.776-6.897-11.686 1.606 1.935 3.501 3.53 5.678 4.709a19.365 19.365 0 0 0 5.097 1.884 19.474 19.474 0 0 0 4.843.449.501.501 0 0 0 .481-.519c-.01-.275-.205-.505-.519-.481a18.34 18.34 0 0 1-4.593-.425 18.413 18.413 0 0 1-4.833-1.786c-2.295-1.244-4.281-2.953-5.958-5.151-.072-.093-.141-.188-.211-.282A14.994 14.994 0 0 1 7.71 3.51z"/></symbol><symbol id="phone" viewBox="0 0 32 32"><path d="M22 20c-2 2-2 4-4 4s-4-2-6-4-4-4-4-6 2-2 4-4-4-8-6-8-6 6-6 6c0 4 4.109 12.109 8 16s12 8 16 8c0 0 6-4 6-6s-6-8-8-6z"/></symbol><symbol id="location" viewBox="0 0 32 32"><path d="M16 0C10.477 0 6 4.477 6 10c0 10 10 22 10 22s10-12 10-22c0-5.523-4.477-10-10-10zm0 16a6 6 0 1 1 0-12 6 6 0 0 1 0 12z"/></symbol></defs></svg>