<svg aria-hidden="true" style="position: absolute; width: 0; height: 0; overflow: hidden;" version="1.1" xmlns="http://www.w3.org/2000/svg" xmlns:xlink="http://www.w3.org/1999/xlink">
<defs>
<symbol id="garanty" viewBox="0 0 27 32">
<path d="M13.5 0c-8.937 0-13.208 5.047-13.386 5.262-0.073 0.090-0.114 0.202-0.114 0.319v10.054c0 8.504 7.826 13.553 11.19 15.329 0.244 0.129 0.546 0.035 0.676-0.209 0.129-0.244 0.035-0.547-0.209-0.676-3.98-2.101-10.657-6.771-10.657-14.445v-9.863c0.702-0.755 4.632-4.597 12-4.765v30.494c0 0.276 0.224 0.5 0.5 0.5 0.149 0 0.283-0.065 0.375-0.169 1.637-0.704 13.125-6.015 13.125-16.331v-10c0-0.117-0.041-0.23-0.115-0.319-0.148-0.179-3.714-4.375-11.141-5.124-0.275-0.019-0.521 0.173-0.548 0.447-0.028 0.275 0.173 0.52 0.447 0.548 6.287 0.634 9.703 3.945 10.357 4.64v9.808c0 8.952-9.363 13.949-12 15.179v-30.179c0-0.276-0.224-0.5-0.5-0.5z"></path>
</symbol>
<symbol id="materials" viewBox="0 0 32 32">
<path d="M30.765 7.262l-11.543-6.515c-1.571-0.887-4.271-0.888-5.845 0l-11.543 6.515c-0.883 0.499-1.368 1.197-1.368 1.967s0.486 1.468 1.368 1.966l11.543 6.516c0.786 0.444 1.824 0.688 2.922 0.688s2.137-0.245 2.923-0.688l11.543-6.516c0.883-0.498 1.369-1.196 1.369-1.966s-0.487-1.468-1.369-1.967zM30.239 10.265l-11.543 6.516c-1.238 0.699-3.556 0.7-4.794 0l-11.543-6.516c-0.524-0.296-0.824-0.674-0.824-1.036s0.3-0.74 0.824-1.037l11.543-6.516c0.619-0.35 1.493-0.55 2.396-0.55 0.904 0 1.778 0.201 2.397 0.55l11.543 6.516c0.524 0.296 0.825 0.674 0.825 1.037 0.001 0.362-0.299 0.74-0.824 1.036zM30.765 14.099c-0.256-0.145-0.582-0.055-0.729 0.203-0.145 0.257-0.054 0.583 0.203 0.728 0.524 0.296 0.825 0.674 0.825 1.036s-0.301 0.74-0.825 1.036l-11.543 6.516c-1.298 0.733-3.494 0.734-4.794 0l-11.543-6.516c-0.524-0.296-0.824-0.674-0.824-1.036s0.3-0.74 0.824-1.036c0.257-0.145 0.348-0.471 0.203-0.728s-0.473-0.349-0.729-0.203c-0.883 0.498-1.368 1.197-1.368 1.967s0.485 1.469 1.368 1.967l11.543 6.516c0.819 0.462 1.871 0.694 2.922 0.694s2.104-0.231 2.923-0.694l11.543-6.516c0.883-0.498 1.369-1.197 1.369-1.967s-0.486-1.469-1.368-1.967zM30.765 20.804c-0.256-0.145-0.582-0.055-0.729 0.203-0.145 0.257-0.054 0.583 0.203 0.728 0.524 0.296 0.825 0.674 0.825 1.036s-0.301 0.74-0.825 1.037l-11.543 6.516c-1.298 0.733-3.494 0.734-4.794 0l-11.543-6.517c-0.524-0.296-0.824-0.674-0.824-1.037 0-0.362 0.3-0.74 0.824-1.036 0.257-0.145 0.348-0.471 0.203-0.728s-0.473-0.349-0.729-0.203c-0.881 0.499-1.367 1.197-1.367 1.968s0.485 1.469 1.368 1.967l11.543 6.516c0.819 0.462 1.871 0.694 2.922 0.694 1.052 0 2.104-0.231 2.923-0.694l11.543-6.516c0.883-0.499 1.369-1.197 1.369-1.967s-0.487-1.469-1.369-1.967z"></path>
</symbol>
<symbol id="servises" viewBox="0 0 32 32">
<path d="M16 32c8.822 0 16-7.178 16-16s-7.178-16-16-16-16 7.178-16 16 7.178 16 16 16zM7.71 3.51c-0.877 2.364-1.313 4.809-1.246 7.287 0.050 1.798 0.357 3.599 0.917 5.355 0.435 1.36 1.003 2.655 1.691 3.848 0.11 0.192 0.225 0.381 0.341 0.568 0.095 0.152 0.258 0.236 0.425 0.236 0.091 0 0.182-0.024 0.264-0.075 0.234-0.146 0.307-0.454 0.161-0.688-0.11-0.178-0.219-0.358-0.325-0.541-0.651-1.131-1.191-2.359-1.604-3.651-0.531-1.667-0.823-3.376-0.87-5.079-0.071-2.608 0.416-5.183 1.473-7.714 0.049-0.12 0.101-0.238 0.153-0.356 2.070-1.080 4.417-1.7 6.91-1.7 2.393 0 4.648 0.577 6.657 1.578-2.48 0.423-4.809 1.267-6.919 2.563-1.531 0.939-2.938 2.107-4.179 3.471-0.962 1.055-1.799 2.196-2.487 3.388-0.111 0.192-0.219 0.386-0.322 0.581-0.13 0.244-0.037 0.547 0.207 0.676 0.074 0.040 0.155 0.059 0.234 0.059 0.179 0 0.352-0.097 0.441-0.266 0.098-0.184 0.199-0.367 0.305-0.55 0.652-1.131 1.447-2.212 2.36-3.215 1.179-1.294 2.513-2.401 3.964-3.293 2.225-1.365 4.698-2.231 7.354-2.572 0.146-0.020 0.293-0.036 0.44-0.053 3.917 2.507 6.588 6.776 6.897 11.686-1.606-1.935-3.501-3.53-5.678-4.709-1.582-0.857-3.297-1.491-5.097-1.884-1.62-0.355-3.252-0.506-4.843-0.448-0.275 0.011-0.491 0.242-0.481 0.519 0.010 0.27 0.231 0.481 0.5 0.481 0.006 0 0.012 0 0.019 0 1.496-0.056 3.054 0.088 4.593 0.425 1.707 0.373 3.334 0.975 4.833 1.786 2.295 1.244 4.281 2.953 5.958 5.151 0.072 0.093 0.141 0.188 0.211 0.282-0.215 4.934-2.808 9.258-6.677 11.834 0.877-2.364 1.313-4.809 1.246-7.287-0.050-1.798-0.357-3.599-0.917-5.355-0.435-1.36-1.003-2.655-1.691-3.848-0.11-0.192-0.225-0.381-0.341-0.568-0.146-0.235-0.455-0.305-0.688-0.161-0.234 0.146-0.307 0.454-0.161 0.688 0.11 0.178 0.219 0.358 0.325 0.541 0.651 1.131 1.191 2.359 1.604 3.651 0.531 1.667 0.823 3.376 0.87 5.079 0.071 2.607-0.416 5.183-1.473 7.714-0.050 0.119-0.101 0.238-0.153 0.356-2.071 1.080-4.418 1.7-6.911 1.7-2.393 0-4.648-0.577-6.657-1.578 2.479-0.423 4.809-1.267 6.919-2.563 1.533-0.941 2.939-2.109 4.179-3.471 0.963-1.056 1.8-2.196 2.487-3.389 0.111-0.192 0.219-0.386 0.322-0.581 0.13-0.244 0.037-0.547-0.207-0.676-0.242-0.13-0.547-0.036-0.676 0.207-0.098 0.184-0.199 0.367-0.305 0.55-0.652 1.131-1.447 2.212-2.361 3.215-1.176 1.293-2.51 2.4-3.963 3.293-2.225 1.365-4.698 2.231-7.354 2.572-0.146 0.020-0.293 0.036-0.44 0.053-3.917-2.507-6.588-6.776-6.897-11.686 1.606 1.935 3.501 3.53 5.678 4.709 1.582 0.857 3.297 1.491 5.097 1.884 1.395 0.307 2.8 0.461 4.178 0.461 0.223 0 0.443-0.004 0.665-0.012 0.275-0.011 0.491-0.242 0.481-0.519-0.010-0.275-0.205-0.505-0.519-0.481-1.494 0.057-3.054-0.088-4.593-0.425-1.707-0.373-3.334-0.975-4.833-1.786-2.295-1.244-4.281-2.953-5.958-5.151-0.072-0.093-0.141-0.188-0.211-0.282 0.216-4.934 2.81-9.258 6.678-11.834z"></path>
</symbol>
<symbol id="phone" viewBox="0 0 32 32">
<path d="M22 20c-2 2-2 4-4 4s-4-2-6-4-4-4-4-6 2-2 4-4-4-8-6-8-6 6-6 6c0 4 4.109 12.109 8 16s12 8 16 8c0 0 6-4 6-6s-6-8-8-6z"></path>
</symbol>
<symbol id="location" viewBox="0 0 32 32">
<path d="M16 0c-5.523 0-10 4.477-10 10 0 10 10 22 10 22s10-12 10-22c0-5.523-4.477-10-10-10zM16 16c-3.314 0-6-2.686-6-6s2.686-6 6-6 6 2.686 6 6-2.686 6-6 6z"></path>
</symbol>
</defs>
</svg>
